<?xml version="1.0" encoding="iso-8859-1"?>
<!-- Generator: Adobe Illustrator 19.0.0, SVG Export Plug-In . SVG Version: 6.00 Build 0)  -->
<svg version="1.1" id="Layer_1" xmlns="http://www.w3.org/2000/svg" xmlns:xlink="http://www.w3.org/1999/xlink" x="0px" y="0px"
	 viewBox="0 0 512 512" style="enable-background:new 0 0 512 512;" xml:space="preserve">
<g>
	<g>
		<path d="M493.887,266.528c-8.45,0-61.45,0-70.423,0l-56.54-107.752c-3.129-5.963-9.307-9.697-16.04-9.697h-49.503v-8.657h10.363
			c10.003,0,18.113-8.11,18.113-18.113V62.714c0-10.003-8.11-18.113-18.113-18.113H118.882c-10.003,0-18.113,8.11-18.113,18.113
			v59.594c0,10.003,8.11,18.113,18.113,18.113h10.363v8.657H85.162c-6.475,0-12.54,3.528-15.731,9.133L2.383,275.662
			C0.831,278.39,0,281.567,0,284.641c0,12.253,0,103.011,0,117.446C0,412.09,8.11,420.2,18.113,420.2c8.448,0,61.232,0,70.207,0
			c18.145,62.896,107.658,62.966,125.823,0h64.413c18.148,62.906,107.653,62.949,125.81,0h89.521
			c10.003,0,18.113-8.11,18.113-18.113V284.641C512,274.638,503.89,266.528,493.887,266.528z M165.471,140.423h99.684v8.657h-99.684
			V140.423z M58.723,383.975H36.226v-22.497h22.497V383.975z M49.311,266.528l37.768-66.159l48.661,66.159H49.311z M121.977,402.082
			c0-37.753,56.477-38.968,58.466-1.57c0.022,0.519,0.037,1.042,0.037,1.576c0,0.025,0.004,0.049,0.004,0.075
			C180.379,440.748,121.977,440.726,121.977,402.082z M218.399,266.529h-37.69l-59.74-81.223h97.43V266.529z M267.672,361.475
			h-23.345c-10.003,0-18.113-8.11-18.113-18.113c0-10.003,8.11-18.113,18.113-18.113h23.345c10.003,0,18.113,8.11,18.113,18.113
			C285.785,353.365,277.675,361.475,267.672,361.475z M341.467,431.336c-16.13,0-29.255-13.124-29.255-29.254
			c0-37.718,56.522-38.924,58.456-1.528c0.021,0.505,0.036,1.014,0.036,1.534c0,0.016,0.002,0.03,0.002,0.046
			C370.68,418.24,357.574,431.336,341.467,431.336z M254.625,266.528v-81.223h85.308l42.619,81.223H254.625z M475.774,325.251
			h-22.497v-22.497h22.497V325.251z"/>
	</g>
</g>
<g>
</g>
<g>
</g>
<g>
</g>
<g>
</g>
<g>
</g>
<g>
</g>
<g>
</g>
<g>
</g>
<g>
</g>
<g>
</g>
<g>
</g>
<g>
</g>
<g>
</g>
<g>
</g>
<g>
</g>
</svg>
